<?xml version="1.0" encoding="UTF-8"?>
<svg xmlns="http://www.w3.org/2000/svg" width="64" height="64" viewBox="0 0 64 64" role="img" aria-label="ROI">
  <defs>
    <linearGradient id="g" x1="8" y1="6" x2="56" y2="58" gradientUnits="userSpaceOnUse">
      <stop offset="0" stop-color="#3b82f6"/>
      <stop offset="1" stop-color="#49d17d"/>
    </linearGradient>
    <filter id="s" x="-20%" y="-20%" width="140%" height="140%">
      <feDropShadow dx="0" dy="2" stdDeviation="2" flood-color="#000" flood-opacity="0.25"/>
    </filter>
  </defs>

  <rect x="6" y="6" width="52" height="52" rx="14" fill="url(#g)" filter="url(#s)"/>
  <path d="M46 18H36c-1.1 0-2 .9-2 2v10h-4V20c0-1.1-.9-2-2-2H18c-1.1 0-2 .9-2 2v24c0 1.1.9 2 2 2h10c1.1 0 2-.9 2-2V34h4v10c0 1.1.9 2 2 2h10c1.1 0 2-.9 2-2V20c0-1.1-.9-2-2-2z" fill="rgba(6,32,51,0.22)"/>

  <text x="32" y="40" text-anchor="middle"
        font-family="system-ui, -apple-system, Segoe UI, Roboto, Arial, sans-serif"
        font-size="20" font-weight="900" letter-spacing="1"
        fill="#062033">
    ROI
  </text>
</svg>
